<svg xmlns="http://www.w3.org/2000/svg" aria-hidden="true" overflow="hidden" style="position:absolute;width:0;height:0">
  <defs>
    <symbol id="mobile-close" viewBox="0 0 32 32">
      <path fill="#fff" d="M8.74 8.74a.93.93 0 0 1 1.32 0l13.2 13.2a.933.933 0 0 1-1.32 1.32l-13.2-13.2a.93.93 0 0 1 0-1.32z"/>
      <path fill=" #fff" d="M8.74 23.26a.93.93 0 0 1 0-1.32l13.2-13.2a.933.933 0 0 1 1.32 1.32l-13.2 13.2a.93.93 0 0 1-1.32 0z"/>
    </symbol>
    <symbol id="telegram" viewBox="0 0 32 32"><path fill="#40b3e0" d="M16 0C7.164 0 0 7.164 0 16s7.164 16 16 16 16-7.164 16-16S24.836 0 16 0z"/><path fill="var(--color4, #fff)" d="m23.786 9.204-2.859 14.409s-.399.998-1.498.519l-6.595-5.056-2.398-1.159-4.037-1.359s-.619-.22-.679-.7c-.06-.48.7-.739.7-.739l16.047-6.294s1.319-.58 1.319.38z"/><path fill="var(--color12, #d2e5f1)" d="M12.327 23.451s-.192-.018-.432-.779c-.24-.758-1.459-4.755-1.459-4.755l9.692-6.155s.56-.34.54 0c0 0 .1.06-.199.339s-7.614 6.854-7.614 6.854z"/><path fill="var(--color13, #b5cfe4)" d="m15.362 21.014-2.608 2.379s-.204.155-.427.058l.499-4.418z"/>
</symbol>
<symbol id="viber" viewBox="0 0 32 32"><path fill="#6f3faa" d="M16 32c8.836 0 16-7.164 16-16S24.836 0 16 0 0 7.164 0 16s7.164 16 16 16z"/><path fill="var(--color4, #fff)" d="m24.464 11.245-.005-.021c-.427-1.728-2.354-3.582-4.125-3.968l-.019-.004c-1.297-.261-2.789-.41-4.315-.41s-3.017.149-4.46.434l.145-.024-.019.004c-1.771.386-3.697 2.24-4.126 3.968l-.004.021c-.252 1.093-.396 2.348-.396 3.637s.144 2.544.418 3.75l-.022-.113.004.021c.411 1.654 2.194 3.424 3.898 3.91v1.931c0 .698.851 1.04 1.335.537l1.954-2.032a23.166 23.166 0 0 0 5.732-.397l-.146.024.021-.003c1.77-.386 3.696-2.24 4.124-3.968l.005-.021c.252-1.093.396-2.348.396-3.637s-.144-2.544-.418-3.75l.022.113zm-1.547 6.926c-.286 1.127-1.749 2.528-2.912 2.788a20.75 20.75 0 0 1-4.619.369l.03.001h-.003a.11.11 0 0 0-.078.033l-2.945 3.023a.178.178 0 0 1-.306-.123v-3.196a.11.11 0 0 0-.089-.108h-.001c-1.163-.259-2.626-1.661-2.912-2.788-.227-.988-.357-2.123-.357-3.288s.13-2.3.376-3.39l-.019.102c.286-1.127 1.749-2.528 2.912-2.787 1.204-.241 2.589-.379 4.005-.379s2.801.138 4.141.401l-.135-.022c1.164.258 2.626 1.66 2.912 2.788.227.988.357 2.123.357 3.287s-.13 2.299-.377 3.39l.019-.102z"/><path fill="var(--color4, #fff)" d="M18.529 19.646c-.178-.054-.349-.091-.507-.157-1.639-.681-3.149-1.557-4.343-2.902-.679-.765-1.212-1.629-1.661-2.543-.213-.433-.394-.883-.576-1.331-.167-.407.078-.829.337-1.137.243-.288.557-.509.895-.672.265-.127.525-.053.718.171.418.484.801.994 1.111 1.555.192.346.139.768-.207 1.003-.085.058-.161.125-.24.189a.79.79 0 0 0-.178.187l-.002.003a.519.519 0 0 0-.033.462l-.001-.003c.427 1.172 1.146 2.084 2.325 2.575.19.079.379.171.597.145.363-.043.482-.443.737-.651.25-.205.569-.207.837-.037s.529.352.789.538c.254.181.507.358.741.565.226.198.304.459.176.729-.233.494-.571.905-1.058 1.167-.139.075-.303.098-.459.146.156-.048-.178-.054 0 0zm-2.525-9.307c2.144.06 3.906 1.483 4.284 3.603.064.362.086.731.115 1.098.012.154-.075.3-.242.302-.171.002-.249-.142-.26-.295-.021-.305-.037-.611-.079-.914a3.841 3.841 0 0 0-3.062-3.199l-.024-.004c-.239-.043-.484-.053-.726-.079-.154-.016-.354-.026-.388-.215-.028-.16.107-.287.259-.295.041-.002.082 0 .124 0 2.144.06-.042 0 0 0z"/><path fill="var(--color4, #fff)" d="M19.264 14.563c-.004.028-.006.091-.021.149-.058.215-.384.242-.459.026a.62.62 0 0 1-.026-.182l.001-.027v.001a2.6 2.6 0 0 0-.329-1.302 2.43 2.43 0 0 0-1.018-.955 2.857 2.857 0 0 0-.794-.246l-.017-.002c-.122-.02-.245-.032-.368-.049-.149-.021-.228-.116-.222-.262a.23.23 0 0 1 .258-.228h-.001c.516.02.996.153 1.424.375l-.019-.009c.89.471 1.397 1.216 1.547 2.208.006.046.017.09.021.135l.021.369c-.003.027-.009-.147 0 0z"/><path fill="var(--color4, #fff)" d="M17.93 14.512c-.179.003-.275-.096-.294-.261-.013-.114-.022-.23-.05-.341a.964.964 0 0 0-.353-.557l-.002-.002a.924.924 0 0 0-.284-.137l-.007-.002c-.131-.039-.269-.029-.399-.061-.143-.035-.222-.149-.199-.284a.258.258 0 0 1 .273-.207h-.001c.832.06 1.425.49 1.51 1.468.005.069.013.143-.002.209-.027.112-.111.17-.192.175.081-.005-.179.003 0 0zm.599 5.134c-.178-.054.156-.048 0 0zm-2.518-9.307h-.001zm-.007 0h.005c.119.004 2.055.058-.005 0zm3.26 4.224c-.01-.147-.004.027 0 0z"/><path fill="var(--color4, #fff)" d="m17.931 14.512.007-.002h-.033.001l.023.002z"/><path fill="var(--color4, #fff)" d="m17.93 14.512-.023-.002a.152.152 0 0 0 .023.002h.001zm.008-.002-.009.002c.021-.002.019-.002.009-.002z"/>
</symbol>
<symbol id="watsapp" viewBox="0 0 32 32"><path fill="#75b73b" d="M16 32c8.836 0 16-7.164 16-16S24.836 0 16 0 0 7.164 0 16s7.164 16 16 16z"/><path fill="var(--color4, #fff)" d="M15.552 6.778c-4.877.233-8.725 4.294-8.71 9.177a9.096 9.096 0 0 0 .997 4.13l-.973 4.72a.356.356 0 0 0 .431.419l4.625-1.097a8.983 8.983 0 0 0 3.929.956h.007c4.983.076 9.14-3.882 9.295-8.864a9.158 9.158 0 0 0-9.621-9.438l.022-.001zm5.519 14.218a7.105 7.105 0 0 1-5.052 2.1h-.02H16h-.021a7.065 7.065 0 0 1-3.211-.766l.04.019-.644-.321-2.835.672.597-2.898-.318-.621a6.992 6.992 0 0 1-.779-3.23v-.027.001c0-1.916.745-3.716 2.099-5.071a7.157 7.157 0 0 1 5.071-2.1c1.916 0 3.716.747 5.071 2.101a7.104 7.104 0 0 1 2.1 5.051v.02-.001a7.178 7.178 0 0 1-2.101 5.071z"/><path fill="var(--color4, #fff)" d="m20.445 17.911-1.774-.51a.663.663 0 0 0-.655.172l-.434.442a.64.64 0 0 1-.707.147l.004.002c-.839-.34-2.605-1.909-3.055-2.694a.642.642 0 0 1 .052-.718l-.001.001.379-.491a.654.654 0 0 0 .079-.675l.002.004-.747-1.687a.662.662 0 0 0-1.034-.236l.001-.001c-.495.419-1.083 1.055-1.154 1.76-.126 1.243.407 2.81 2.423 4.691 2.329 2.174 4.192 2.461 5.408 2.165.688-.165 1.237-.834 1.585-1.382a.66.66 0 0 0-.37-.99l-.005-.001z"/>
</symbol>
  </defs>
</svg>
